<svg xmlns="http://www.w3.org/2000/svg" viewBox="0 0 328 64" fill="none">
  <rect width="328" height="64" rx="14" fill="#FFFFFF"/>
  <g transform="translate(16 8) scale(0.75)">
    <rect width="64" height="64" rx="16" fill="#1D8BFF"/>
    <rect x="17" y="14" width="30" height="40" rx="5" fill="#FFFFFF"/>
    <path d="M25 14.5C25.8 11.3 28.5 9 32 9s6.2 2.3 7 5.5" fill="none" stroke="#0B1220" stroke-width="4" stroke-linecap="round"/>
    <rect x="24" y="12" width="16" height="8" rx="3" fill="#EAF4FF" stroke="#0B1220" stroke-width="2.5"/>
    <path d="M31 28h8M31 37h8M31 46h8" stroke="#0B1220" stroke-width="3" stroke-linecap="round"/>
    <path d="M22.5 28.5l2 2 4-5M22.5 37.5l2 2 4-5" fill="none" stroke="#13B981" stroke-width="3" stroke-linecap="round" stroke-linejoin="round"/>
    <path d="M23 46h5M25.5 43.5v5" stroke="#EF4444" stroke-width="3" stroke-linecap="round"/>
  </g>
  <text x="76" y="40" fill="#0B1220" font-family="Inter, ui-sans-serif, system-ui, sans-serif" font-size="26" font-weight="700">ClinicalCaseLog</text>
</svg>
